<svg width="102" height="24" viewBox="0 0 102 24" fill="none" xmlns="http://www.w3.org/2000/svg">
<g clip-path="url(#clip0_1_1822)">
<path d="M101.185 20.3305C101.01 20.2135 100.776 20.272 100.674 20.462C99.6361 22.3621 97.8675 23.0344 96.289 23.0344C92.7227 23.0344 90.8226 19.4974 90.618 15.3172C90.6034 15.098 90.6034 14.8787 90.6034 14.6595V14.6449H100.835C100.981 14.6449 101.098 14.528 101.098 14.3818C101.171 11.9848 100.089 7.41003 94.7981 7.41003C90.1795 7.41003 86.2188 10.8448 86.2188 15.6534C86.2188 20.5497 90.3257 23.999 94.5643 23.999C97.2244 23.999 100.075 22.6544 101.375 20.4474L101.185 20.3305ZM93.9943 7.81927C96.0843 8.28698 96.7859 11.8679 96.6836 14.2503H90.6034C90.6765 10.4648 92.1088 7.81927 93.9943 7.81927Z" fill="#1D1D1D"/>
<path d="M67.9355 20.462C66.8978 22.3621 65.1293 23.0344 63.5508 23.0344C59.9845 23.0344 58.0845 19.4974 57.8798 15.3172C57.8652 15.098 57.8652 14.8787 57.8652 14.6595V14.6449H68.0963C68.2425 14.6449 68.3594 14.528 68.3594 14.3818C68.4325 11.9848 67.3509 7.41003 62.06 7.41003C57.4414 7.41003 53.4805 10.8448 53.4805 15.6534C53.4805 20.5497 57.5875 23.999 61.8261 23.999C64.4862 23.999 67.3363 22.6544 68.6371 20.4474L68.4763 20.3305C68.2863 20.2135 68.0378 20.272 67.9355 20.462ZM61.2561 7.81927C63.3462 8.28698 64.0477 11.8679 63.9454 14.2503H57.8652C57.9529 10.4648 59.3853 7.81927 61.2561 7.81927Z" fill="#1D1D1D"/>
<path d="M35.6621 -0.00012207V19.4828C35.6621 21.9821 37.6791 23.9991 40.1784 23.9991V4.51617C40.1784 2.03148 38.1614 -0.00012207 35.6621 -0.00012207Z" fill="#1D1D1D"/>
<path d="M42.9407 7.14685C42.7069 7.14685 42.5169 7.32224 42.5169 7.5561C42.4876 7.5561 42.5023 7.5561 42.5169 7.5561C45.2939 8.24304 46.887 12.1309 46.5362 16.9541C46.2731 20.5934 45.0746 23.2535 42.5169 23.5897C42.5169 23.8235 42.7069 24.0136 42.9554 23.9989C43.9931 23.9551 45.0162 23.7212 45.9662 23.312C49.9856 21.5727 52.3972 16.7495 50.4094 12.1893C48.9917 8.9446 45.9954 7.24916 42.9407 7.14685Z" fill="#1D1D1D"/>
<path d="M0 -0.00012207V19.4828C0 21.9821 2.01699 23.9991 4.51629 23.9991V4.51617C4.51629 2.03148 2.49931 -0.00012207 0 -0.00012207Z" fill="#1D1D1D"/>
<path d="M7.27863 7.14685C7.04477 7.14685 6.85477 7.32224 6.85477 7.5561C6.82554 7.5561 6.84015 7.5561 6.85477 7.5561C9.63178 8.24304 11.2249 12.1309 10.8741 16.9541C10.611 20.5934 9.41254 23.2535 6.85477 23.5897C6.85477 23.8235 7.04477 24.0136 7.29324 23.9989C8.33097 23.9551 9.35408 23.7212 10.3041 23.312C14.3235 21.5727 16.7351 16.7495 14.7473 12.1893C13.3296 8.9446 10.3333 7.24916 7.27863 7.14685Z" fill="#1D1D1D"/>
<path d="M32.2578 20.462C31.2201 22.3621 29.4516 23.0344 27.873 23.0344C24.3068 23.0344 22.4067 19.4974 22.2021 15.3172C22.1875 15.098 22.1875 14.8787 22.1875 14.6595V14.6449H32.4186C32.5647 14.6449 32.6817 14.528 32.6817 14.3818C32.7547 11.9848 31.6732 7.41003 26.3822 7.41003C21.7636 7.41003 17.8027 10.8448 17.8027 15.6534C17.8027 20.5497 21.9098 23.999 26.1484 23.999C28.8085 23.999 31.6585 22.6544 32.9594 20.4474L32.7986 20.3305C32.594 20.2135 32.3601 20.272 32.2578 20.462ZM25.5784 7.81927C27.6684 8.28698 28.37 11.8679 28.2677 14.2503H22.1875C22.2606 10.4648 23.6929 7.81927 25.5784 7.81927Z" fill="#1D1D1D"/>
<path d="M84.6406 20.5061C83.6029 22.3916 81.8344 23.0493 80.2412 23.0493C76.4996 23.0493 74.5703 19.1323 74.5703 14.3967C74.5703 11.4297 75.3303 9.07654 76.9527 8.19959C76.9527 7.90727 76.675 7.68803 76.3827 7.76111C72.831 8.71114 70.1855 11.7366 70.1855 15.6683C70.1855 20.5061 74.2487 23.9993 78.5312 23.9993C81.1913 23.9993 84.0414 22.6547 85.3422 20.4477L85.2252 20.36C85.0206 20.2284 84.7575 20.2869 84.6406 20.5061Z" fill="#1D1D1D"/>
<path d="M78.6032 7.98004C79.9625 8.85699 81.9502 10.8302 83.2072 12.2041L84.4203 8.72545C83.0756 8.02389 80.854 7.41003 78.8809 7.41003H78.764C78.5886 7.41003 78.457 7.55618 78.457 7.71696C78.457 7.83389 78.5155 7.92158 78.6032 7.98004Z" fill="#1D1D1D"/>
<path d="M93.7763 2.30931L98.0003 5.1594L98.1757 5.02786L93.864 0.0584717H93.6886L89.377 5.02786L89.5523 5.1594L93.7763 2.30931Z" fill="#1D1D1D"/>
</g>
<defs>
<clipPath id="clip0_1_1822">
<rect width="102" height="24" fill="white"/>
</clipPath>
</defs>
</svg>
